<mxfile host="app.diagrams.net" modified="2023-10-13T05:30:05.752Z" agent="Mozilla/5.0 (Windows NT 10.0; Win64; x64) AppleWebKit/537.36 (KHTML, like Gecko) Chrome/117.0.0.0 Safari/537.36 Edg/117.0.2045.60" etag="FAz0iSfZcCU5a22U0SVO" version="22.0.4" type="github">
  <diagram id="C5RBs43oDa-KdzZeNtuy" name="Page-1">
    <mxGraphModel dx="792" dy="457" grid="1" gridSize="10" guides="1" tooltips="1" connect="1" arrows="1" fold="1" page="1" pageScale="1" pageWidth="1169" pageHeight="827" math="0" shadow="0">
      <root>
        <mxCell id="WIyWlLk6GJQsqaUBKTNV-0" />
        <mxCell id="WIyWlLk6GJQsqaUBKTNV-1" parent="WIyWlLk6GJQsqaUBKTNV-0" />
        <mxCell id="1nD2Y-s5OxwRe0TKMfl2-20" value="" style="edgeStyle=orthogonalEdgeStyle;rounded=0;orthogonalLoop=1;jettySize=auto;html=1;" edge="1" parent="WIyWlLk6GJQsqaUBKTNV-1" source="WIyWlLk6GJQsqaUBKTNV-3" target="4JE6QT80J-GuDBKImqkp-0">
          <mxGeometry relative="1" as="geometry" />
        </mxCell>
        <mxCell id="WIyWlLk6GJQsqaUBKTNV-3" value="&lt;span style=&quot;font-family: Consolas, &amp;quot;Courier New&amp;quot;, monospace; font-size: 14px;&quot;&gt;&lt;font color=&quot;#33001a&quot;&gt;&lt;b&gt;Add&lt;/b&gt;&lt;br&gt;addJobToTbl()&lt;/font&gt;&lt;/span&gt;" style="rounded=1;whiteSpace=wrap;html=1;fontSize=12;glass=0;strokeWidth=1;shadow=0;" parent="WIyWlLk6GJQsqaUBKTNV-1" vertex="1">
          <mxGeometry x="390" y="200" width="120" height="40" as="geometry" />
        </mxCell>
        <mxCell id="1nD2Y-s5OxwRe0TKMfl2-16" value="" style="edgeStyle=orthogonalEdgeStyle;rounded=0;orthogonalLoop=1;jettySize=auto;html=1;" edge="1" parent="WIyWlLk6GJQsqaUBKTNV-1" source="4JE6QT80J-GuDBKImqkp-0" target="1nD2Y-s5OxwRe0TKMfl2-14">
          <mxGeometry relative="1" as="geometry">
            <Array as="points">
              <mxPoint x="450" y="370" />
              <mxPoint x="475" y="370" />
            </Array>
          </mxGeometry>
        </mxCell>
        <mxCell id="1nD2Y-s5OxwRe0TKMfl2-19" value="" style="edgeStyle=orthogonalEdgeStyle;rounded=0;orthogonalLoop=1;jettySize=auto;html=1;" edge="1" parent="WIyWlLk6GJQsqaUBKTNV-1" source="4JE6QT80J-GuDBKImqkp-0" target="1nD2Y-s5OxwRe0TKMfl2-18">
          <mxGeometry relative="1" as="geometry" />
        </mxCell>
        <mxCell id="4JE6QT80J-GuDBKImqkp-0" value="&lt;div style=&quot;font-family: Consolas, &amp;quot;Courier New&amp;quot;, monospace; font-size: 14px; line-height: 19px;&quot;&gt;&lt;font color=&quot;#33001a&quot;&gt;enablejobtbl()&lt;/font&gt;&lt;/div&gt;" style="rounded=1;whiteSpace=wrap;html=1;" parent="WIyWlLk6GJQsqaUBKTNV-1" vertex="1">
          <mxGeometry x="390" y="290" width="120" height="60" as="geometry" />
        </mxCell>
        <mxCell id="1nD2Y-s5OxwRe0TKMfl2-6" value="" style="edgeStyle=orthogonalEdgeStyle;rounded=0;orthogonalLoop=1;jettySize=auto;html=1;" edge="1" parent="WIyWlLk6GJQsqaUBKTNV-1" source="1nD2Y-s5OxwRe0TKMfl2-0" target="1nD2Y-s5OxwRe0TKMfl2-3">
          <mxGeometry relative="1" as="geometry" />
        </mxCell>
        <mxCell id="1nD2Y-s5OxwRe0TKMfl2-8" value="" style="edgeStyle=orthogonalEdgeStyle;rounded=0;orthogonalLoop=1;jettySize=auto;html=1;" edge="1" parent="WIyWlLk6GJQsqaUBKTNV-1" source="1nD2Y-s5OxwRe0TKMfl2-0" target="1nD2Y-s5OxwRe0TKMfl2-3">
          <mxGeometry relative="1" as="geometry" />
        </mxCell>
        <mxCell id="1nD2Y-s5OxwRe0TKMfl2-0" value="&lt;b&gt;Input Form&amp;nbsp;&lt;br&gt;&lt;/b&gt;&lt;div style=&quot;font-family: Consolas, &amp;quot;Courier New&amp;quot;, monospace; font-size: 14px; line-height: 19px;&quot;&gt;&lt;font color=&quot;#33001a&quot;&gt;showFormPage()&lt;/font&gt;&lt;/div&gt;" style="rounded=1;whiteSpace=wrap;html=1;" vertex="1" parent="WIyWlLk6GJQsqaUBKTNV-1">
          <mxGeometry x="20" y="190" width="120" height="60" as="geometry" />
        </mxCell>
        <mxCell id="1nD2Y-s5OxwRe0TKMfl2-1" value="resetMonTypeForm&lt;span style=&quot;font-family: Consolas, &amp;quot;Courier New&amp;quot;, monospace; font-size: 14px;&quot;&gt;&lt;font color=&quot;#33001a&quot;&gt;()&lt;/font&gt;&lt;/span&gt;" style="rounded=1;whiteSpace=wrap;html=1;fontSize=12;glass=0;strokeWidth=1;shadow=0;" vertex="1" parent="WIyWlLk6GJQsqaUBKTNV-1">
          <mxGeometry x="190" y="130" width="120" height="40" as="geometry" />
        </mxCell>
        <mxCell id="1nD2Y-s5OxwRe0TKMfl2-2" value="resetsysForm&lt;span style=&quot;font-family: Consolas, &amp;quot;Courier New&amp;quot;, monospace; font-size: 14px;&quot;&gt;&lt;font color=&quot;#33001a&quot;&gt;()&lt;/font&gt;&lt;/span&gt;" style="rounded=1;whiteSpace=wrap;html=1;fontSize=12;glass=0;strokeWidth=1;shadow=0;" vertex="1" parent="WIyWlLk6GJQsqaUBKTNV-1">
          <mxGeometry x="190" y="180" width="120" height="40" as="geometry" />
        </mxCell>
        <mxCell id="1nD2Y-s5OxwRe0TKMfl2-3" value="resetdbinfoForm&lt;span style=&quot;font-family: Consolas, &amp;quot;Courier New&amp;quot;, monospace; font-size: 14px;&quot;&gt;&lt;font color=&quot;#33001a&quot;&gt;()&lt;/font&gt;&lt;/span&gt;" style="rounded=1;whiteSpace=wrap;html=1;fontSize=12;glass=0;strokeWidth=1;shadow=0;" vertex="1" parent="WIyWlLk6GJQsqaUBKTNV-1">
          <mxGeometry x="190" y="230" width="120" height="40" as="geometry" />
        </mxCell>
        <mxCell id="1nD2Y-s5OxwRe0TKMfl2-4" value="resetJobFreqForm&lt;span style=&quot;font-family: Consolas, &amp;quot;Courier New&amp;quot;, monospace; font-size: 14px;&quot;&gt;&lt;font color=&quot;#33001a&quot;&gt;()&lt;/font&gt;&lt;/span&gt;" style="rounded=1;whiteSpace=wrap;html=1;fontSize=12;glass=0;strokeWidth=1;shadow=0;" vertex="1" parent="WIyWlLk6GJQsqaUBKTNV-1">
          <mxGeometry x="190" y="280" width="120" height="40" as="geometry" />
        </mxCell>
        <mxCell id="1nD2Y-s5OxwRe0TKMfl2-5" value="jobListForTbl &amp;amp;&amp;nbsp;jobListForPy&amp;nbsp;&lt;span style=&quot;color: rgb(51, 0, 26); font-family: Consolas, &amp;quot;Courier New&amp;quot;, monospace; font-size: 14px; background-color: initial;&quot;&gt;clear Array&lt;/span&gt;" style="rounded=1;whiteSpace=wrap;html=1;fontSize=12;glass=0;strokeWidth=1;shadow=0;" vertex="1" parent="WIyWlLk6GJQsqaUBKTNV-1">
          <mxGeometry x="190" y="330" width="120" height="70" as="geometry" />
        </mxCell>
        <mxCell id="1nD2Y-s5OxwRe0TKMfl2-10" value="" style="edgeStyle=orthogonalEdgeStyle;rounded=0;orthogonalLoop=1;jettySize=auto;html=1;entryX=0;entryY=0.5;entryDx=0;entryDy=0;exitX=1.003;exitY=0.647;exitDx=0;exitDy=0;exitPerimeter=0;" edge="1" parent="WIyWlLk6GJQsqaUBKTNV-1" source="1nD2Y-s5OxwRe0TKMfl2-0" target="1nD2Y-s5OxwRe0TKMfl2-4">
          <mxGeometry relative="1" as="geometry">
            <mxPoint x="150" y="230" as="sourcePoint" />
            <mxPoint x="150" y="310" as="targetPoint" />
            <Array as="points">
              <mxPoint x="140" y="230" />
              <mxPoint x="160" y="230" />
              <mxPoint x="160" y="300" />
            </Array>
          </mxGeometry>
        </mxCell>
        <mxCell id="1nD2Y-s5OxwRe0TKMfl2-11" value="" style="edgeStyle=orthogonalEdgeStyle;rounded=0;orthogonalLoop=1;jettySize=auto;html=1;exitX=1.003;exitY=0.647;exitDx=0;exitDy=0;exitPerimeter=0;" edge="1" parent="WIyWlLk6GJQsqaUBKTNV-1">
          <mxGeometry relative="1" as="geometry">
            <mxPoint x="140" y="240" as="sourcePoint" />
            <mxPoint x="190" y="360" as="targetPoint" />
            <Array as="points">
              <mxPoint x="140" y="241" />
              <mxPoint x="150" y="241" />
              <mxPoint x="150" y="360" />
              <mxPoint x="190" y="360" />
            </Array>
          </mxGeometry>
        </mxCell>
        <mxCell id="1nD2Y-s5OxwRe0TKMfl2-12" value="" style="edgeStyle=orthogonalEdgeStyle;rounded=0;orthogonalLoop=1;jettySize=auto;html=1;entryX=0;entryY=0.5;entryDx=0;entryDy=0;" edge="1" parent="WIyWlLk6GJQsqaUBKTNV-1">
          <mxGeometry relative="1" as="geometry">
            <mxPoint x="140" y="210" as="sourcePoint" />
            <mxPoint x="190" y="200" as="targetPoint" />
            <Array as="points">
              <mxPoint x="140" y="210" />
              <mxPoint x="160" y="210" />
              <mxPoint x="160" y="200" />
            </Array>
          </mxGeometry>
        </mxCell>
        <mxCell id="1nD2Y-s5OxwRe0TKMfl2-13" value="" style="edgeStyle=orthogonalEdgeStyle;rounded=0;orthogonalLoop=1;jettySize=auto;html=1;entryX=0;entryY=0.5;entryDx=0;entryDy=0;exitX=0.993;exitY=0.147;exitDx=0;exitDy=0;exitPerimeter=0;" edge="1" parent="WIyWlLk6GJQsqaUBKTNV-1" source="1nD2Y-s5OxwRe0TKMfl2-0">
          <mxGeometry relative="1" as="geometry">
            <mxPoint x="150" y="200" as="sourcePoint" />
            <mxPoint x="190" y="150" as="targetPoint" />
            <Array as="points">
              <mxPoint x="150" y="199" />
              <mxPoint x="150" y="150" />
            </Array>
          </mxGeometry>
        </mxCell>
        <mxCell id="1nD2Y-s5OxwRe0TKMfl2-14" value="&lt;div style=&quot;font-family: Consolas, &amp;quot;Courier New&amp;quot;, monospace; font-size: 14px; line-height: 19px;&quot;&gt;appendJobListForTbl&lt;font color=&quot;#33001a&quot;&gt;()&lt;/font&gt;&lt;/div&gt;" style="rounded=1;whiteSpace=wrap;html=1;" vertex="1" parent="WIyWlLk6GJQsqaUBKTNV-1">
          <mxGeometry x="390" y="384" width="170" height="60" as="geometry" />
        </mxCell>
        <mxCell id="1nD2Y-s5OxwRe0TKMfl2-15" value="&lt;div style=&quot;font-family: Consolas, &amp;quot;Courier New&amp;quot;, monospace; font-size: 14px; line-height: 19px;&quot;&gt;appendJobListForPy&lt;font color=&quot;#33001a&quot;&gt;()&lt;/font&gt;&lt;/div&gt;" style="rounded=1;whiteSpace=wrap;html=1;" vertex="1" parent="WIyWlLk6GJQsqaUBKTNV-1">
          <mxGeometry x="570" y="384" width="170" height="60" as="geometry" />
        </mxCell>
        <mxCell id="1nD2Y-s5OxwRe0TKMfl2-17" value="" style="edgeStyle=orthogonalEdgeStyle;rounded=0;orthogonalLoop=1;jettySize=auto;html=1;entryX=0.439;entryY=0.012;entryDx=0;entryDy=0;entryPerimeter=0;" edge="1" parent="WIyWlLk6GJQsqaUBKTNV-1" target="1nD2Y-s5OxwRe0TKMfl2-15">
          <mxGeometry relative="1" as="geometry">
            <mxPoint x="484.97" y="350" as="sourcePoint" />
            <mxPoint x="650" y="380" as="targetPoint" />
            <Array as="points">
              <mxPoint x="485" y="370" />
              <mxPoint x="645" y="370" />
            </Array>
          </mxGeometry>
        </mxCell>
        <mxCell id="1nD2Y-s5OxwRe0TKMfl2-18" value="&lt;div style=&quot;font-family: Consolas, &amp;quot;Courier New&amp;quot;, monospace; font-size: 14px; line-height: 19px;&quot;&gt;generateTable&lt;font color=&quot;#33001a&quot;&gt;()&lt;/font&gt;&lt;/div&gt;" style="rounded=1;whiteSpace=wrap;html=1;" vertex="1" parent="WIyWlLk6GJQsqaUBKTNV-1">
          <mxGeometry x="540" y="290" width="120" height="60" as="geometry" />
        </mxCell>
        <mxCell id="1nD2Y-s5OxwRe0TKMfl2-21" value="&lt;div style=&quot;font-family: Consolas, &amp;quot;Courier New&amp;quot;, monospace; font-size: 14px; line-height: 19px;&quot;&gt;clrJobInput&lt;font color=&quot;#33001a&quot;&gt;()&lt;/font&gt;&lt;/div&gt;" style="rounded=1;whiteSpace=wrap;html=1;" vertex="1" parent="WIyWlLk6GJQsqaUBKTNV-1">
          <mxGeometry x="760" y="384" width="120" height="60" as="geometry" />
        </mxCell>
        <mxCell id="1nD2Y-s5OxwRe0TKMfl2-22" value="" style="edgeStyle=orthogonalEdgeStyle;rounded=0;orthogonalLoop=1;jettySize=auto;html=1;entryX=0.439;entryY=0.012;entryDx=0;entryDy=0;entryPerimeter=0;exitX=0.898;exitY=1.017;exitDx=0;exitDy=0;exitPerimeter=0;" edge="1" parent="WIyWlLk6GJQsqaUBKTNV-1" source="4JE6QT80J-GuDBKImqkp-0">
          <mxGeometry relative="1" as="geometry">
            <mxPoint x="660" y="347.5" as="sourcePoint" />
            <mxPoint x="820.03" y="382.5" as="targetPoint" />
            <Array as="points">
              <mxPoint x="498" y="360" />
              <mxPoint x="660" y="360" />
              <mxPoint x="660" y="368" />
              <mxPoint x="820" y="368" />
            </Array>
          </mxGeometry>
        </mxCell>
      </root>
    </mxGraphModel>
  </diagram>
</mxfile>
